<svg width="16" height="16" viewBox="0 0 16 16" fill="none" xmlns="http://www.w3.org/2000/svg">
<path d="M2.4694 9.47073L7.4694 4.47073C7.53908 4.40081 7.62188 4.34533 7.71304 4.30748C7.8042 4.26963 7.90194 4.25014 8.00065 4.25014C8.09936 4.25014 8.1971 4.26963 8.28827 4.30748C8.37943 4.34533 8.46223 4.40081 8.5319 4.47073L13.5319 9.47073C13.6728 9.61163 13.752 9.80272 13.752 10.002C13.752 10.2012 13.6728 10.3923 13.5319 10.5332C13.391 10.6741 13.1999 10.7533 13.0007 10.7533C12.8014 10.7533 12.6103 10.6741 12.4694 10.5332L8.00003 6.06386L3.53065 10.5339C3.38976 10.6748 3.19866 10.7539 2.9994 10.7539C2.80015 10.7539 2.60905 10.6748 2.46815 10.5339C2.32726 10.393 2.2481 10.2019 2.2481 10.0026C2.2481 9.80335 2.32726 9.61225 2.46815 9.47136L2.4694 9.47073Z" fill="black"/>
</svg>
