<svg width="40" height="40" viewBox="0 0 40 40" fill="none" xmlns="http://www.w3.org/2000/svg">
<ellipse cx="19.9955" cy="20" rx="19.9955" ry="20" transform="matrix(1 0 0 -1 0 40)" fill="#D5D5D5"/>
<g clip-path="url(#clip0_803_3046)">
<path fill-rule="evenodd" clip-rule="evenodd" d="M20.6997 14.9608C20.5122 14.7733 20.258 14.668 19.9929 14.668C19.7278 14.668 19.4735 14.7733 19.286 14.9608L13.6303 20.6178C13.5348 20.71 13.4586 20.8203 13.4062 20.9424C13.3538 21.0644 13.3263 21.1956 13.3251 21.3284C13.324 21.4611 13.3493 21.5928 13.3995 21.7157C13.4498 21.8386 13.524 21.9503 13.6179 22.0442C13.7118 22.138 13.8234 22.2123 13.9463 22.2626C14.0691 22.3129 14.2008 22.3382 14.3335 22.337C14.4663 22.3359 14.5975 22.3083 14.7195 22.2559C14.8414 22.2034 14.9517 22.1273 15.044 22.0318L19.9929 17.0818L24.9418 22.0318C25.1303 22.2139 25.3829 22.3147 25.645 22.3124C25.9071 22.3102 26.1579 22.205 26.3433 22.0196C26.5286 21.8342 26.6338 21.5834 26.636 21.3212C26.6383 21.059 26.5376 20.8064 26.3554 20.6178L20.6997 14.9608Z" fill="#333333"/>
</g>
<defs>
<clipPath id="clip0_803_3046">
<rect width="24" height="23.9946" fill="white" transform="matrix(0 1 1 0 7.99817 8)"/>
</clipPath>
</defs>
</svg>
