<svg width="24" height="24" viewBox="0 0 24 24" fill="none" xmlns="http://www.w3.org/2000/svg">
<path d="M20.2097 3H13.5806V9.12204C13.5807 9.15608 13.5717 9.18954 13.5547 9.219C13.5376 9.24847 13.5131 9.27289 13.4835 9.28978C13.454 9.30667 13.4205 9.31542 13.3864 9.31515C13.3524 9.31488 13.319 9.30559 13.2897 9.28823L12.0978 8.58713C12.0681 8.56984 12.0344 8.56073 12 8.56073C11.9656 8.56073 11.9319 8.56984 11.9022 8.58713L10.7103 9.28823C10.681 9.30559 10.6476 9.31488 10.6136 9.31515C10.5795 9.31542 10.546 9.30667 10.5165 9.28978C10.4869 9.27289 10.4624 9.24847 10.4453 9.219C10.4283 9.18954 10.4193 9.15608 10.4194 9.12204V3H3.79029C3.68651 3 3.58374 3.02044 3.48786 3.06015C3.39197 3.09986 3.30485 3.15807 3.23147 3.23145C3.15808 3.30483 3.09987 3.39195 3.06015 3.48783C3.02044 3.58371 3 3.68647 3 3.79025V20.2098C2.99996 20.3135 3.02038 20.4163 3.06008 20.5122C3.09978 20.6081 3.15799 20.6952 3.23139 20.7686C3.30478 20.842 3.39191 20.9002 3.48781 20.9399C3.58371 20.9796 3.6865 21 3.79029 21H20.2097C20.3135 21 20.4163 20.9796 20.5122 20.9399C20.6081 20.9002 20.6952 20.842 20.7686 20.7686C20.842 20.6952 20.9002 20.6081 20.9399 20.5122C20.9796 20.4163 21 20.3135 21 20.2098V3.79025C21 3.68647 20.9796 3.58371 20.9398 3.48783C20.9001 3.39195 20.8419 3.30484 20.7685 3.23145C20.6951 3.15807 20.608 3.09986 20.5121 3.06015C20.4163 3.02044 20.3135 3 20.2097 3Z" fill="#1C4532"/>
</svg>
