<svg width="16" height="16" viewBox="0 0 16 16" fill="none" xmlns="http://www.w3.org/2000/svg">
<path d="M1.79863 1.77778H7.19454C7.68916 1.77778 8.09385 1.37778 8.09385 0.888889C8.09385 0.4 7.68916 0 7.19454 0H1.79863C0.809385 0 0 0.8 0 1.77778V14.2222C0 15.2 0.809385 16 1.79863 16H7.19454C7.68916 16 8.09385 15.6 8.09385 15.1111C8.09385 14.6222 7.68916 14.2222 7.19454 14.2222H1.79863V1.77778Z" fill="#E72D38"/>
<path d="M15.8729 7.68892L13.3638 5.20892C13.3012 5.14541 13.2209 5.1018 13.1332 5.08365C13.0454 5.06551 12.9541 5.07366 12.8711 5.10707C12.788 5.14048 12.7169 5.19763 12.6669 5.27119C12.6169 5.34476 12.5903 5.4314 12.5904 5.52004V7.11115H6.29513C5.80051 7.11115 5.39581 7.51115 5.39581 8.00004C5.39581 8.48892 5.80051 8.88893 6.29513 8.88893H12.5904V10.48C12.5904 10.88 13.076 11.0756 13.3548 10.7911L15.8639 8.31115C16.0437 8.14226 16.0437 7.85781 15.8729 7.68892Z" fill="#E72D38"/>
</svg>
